# xmcd
#
# Track frame offsets: 
#        150
#        5984
#        20830
#        25553
#        37552
#        51950
#        59559
#        74530
#        85017
#        95672
#        115185
#        121783
#        133191
#        143409
#        152773
#
# Disc length: 2329 seconds
#
# Revision: 3
# Processed by: cddbd v1.5.2PL0 Copyright (c) Steve Scherf et al.
# Submitted via: ExactAudioCopy v1.2
#
DISCID=c509170f
DTITLE=Various Artist - Scion CD Sampler Mix 17 Vice Records Mixed by Flosstr
DTITLE=adamus
DYEAR=2007
DGENRE=
TTITLE0=Zongamin - Bongo Song [Mr Flash Remix]
TTITLE1=Bloc party - The Prayer [Does It Offend You, Yeah? Remix]
TTITLE2=Panthers - Long Time Coming
TTITLE3=Black Lips - Not A Problem
TTITLE4=Favourite Sons - Hang On, Girl
TTITLE5=Sebastian - H.A.L.
TTITLE6=Vicarious Bliss - Theme from Vicarious Bliss [Justice Mix]
TTITLE7=Charlotte Gainsbourg - Set Yourself On Fire
TTITLE8=DJ Mehdi featuring Chromeo - I Am Somebody [Paris Version]
TTITLE9=Justice - Phantom
TTITLE10=Boredoms - Jungle Taitei [Laughter Robot's H*mp Mix and Yann To
TTITLE10=mita Remix]
TTITLE11=Chromeo - Fancy Footwork
TTITLE12=Charlotte Gainsbourg - The Operation
TTITLE13=120 Days - Sleepwalking
TTITLE14=Bloc Party - Sunday
EXTD=
EXTT0=
EXTT1=
EXTT2=
EXTT3=
EXTT4=
EXTT5=
EXTT6=
EXTT7=
EXTT8=
EXTT9=
EXTT10=
EXTT11=
EXTT12=
EXTT13=
EXTT14=
PLAYORDER=
